2025/02/24 12:55:27 INF MediaMTX v1.11.3
2025/02/24 12:55:27 INF configuration loaded from C:\users\jalu\mediamtx_v1.11.3_windows_amd64\mediamtx.yml
2025/02/24 12:55:27 INF [path stream4] runOnInit command started
2025/02/24 12:55:27 INF [RTSP] listener opened on :8554 (TCP), :8000 (UDP/RTP), :8001 (UDP/RTCP)
2025/02/24 12:55:27 INF [RTMP] listener opened on :1935
2025/02/24 12:55:27 INF [HLS] listener opened on :8888
2025/02/24 12:55:27 INF [path stream1] runOnInit command started
2025/02/24 12:55:27 INF [path stream2] runOnInit command started
2025/02/24 12:55:27 INF [path stream3] runOnInit command started
ffmpeg version 7.1-full_build-www.gyan.dev Copyright (c) 2000-2024 the FFmpeg developers
  built with gcc 14.2.0 (Rev1, Built by MSYS2 project)
  configuration: --enable-gpl --enable-version3 --enable-static --disable-w32threads --disable-autodetect --enable-fontconfig --enable-iconv --enable-gnutls --enable-libxml2 --enable-gmp --enable-bzlib --enable-lzma --enable-libsnappy --enable-zlib --enable-librist --enable-libsrt --enable-libssh --enable-libzmq --enable-avisynth --enable-libbluray --enable-libcaca --enable-sdl2 --enable-libaribb24 --enable-libaribcaption --enable-libdav1d --enable-libdavs2 --enable-libopenjpeg --enable-libquirc --enable-libuavs3d --enable-libxevd --enable-libzvbi --enable-libqrencode --enable-librav1e --enable-libsvtav1 --enable-libvvenc --enable-libwebp --enable-libx264 --enable-libx265 --enable-libxavs2 --enable-libxeve --enable-libxvid --enable-libaom --enable-libjxl --enable-libvpx --enable-mediafoundation --enable-libass --enable-frei0r --enable-libfreetype --enable-libfribidi --enable-libharfbuzz --enable-liblensfun --enable-libvidstab --enable-libvmaf --enable-libzimg --enable-amf --enable-cuda-llvm --enable-cuvid --enable-dxva2 --enable-d3d11va --enable-d3d12va --enable-ffnvcodec --enable-libvpl --enable-nvdec --enable-nvenc --enable-vaapi --enable-libshaderc --enable-vulkan --enable-libplacebo --enable-opencl --enable-libcdio --enable-libgme --enable-libmodplug --enable-libopenmpt --enable-libopencore-amrwb --enable-libmp3lame --enable-libshine --enable-libtheora --enable-libtwolame --enable-libvo-amrwbenc --enable-libcodec2 --enable-libilbc --enable-libgsm --enable-liblc3 --enable-libopencore-amrnb --enable-libopus --enable-libspeex --enable-libvorbis --enable-ladspa --enable-libbs2b --enable-libflite --enable-libmysofa --enable-librubberband --enable-libsoxr --enable-chromaprint
  libavutil      59. 39.100 / 59. 39.100
  libavcodec     61. 19.100 / 61. 19.100
  libavformat    61.  7.100 / 61.  7.100
  libavdevice    61.  3.100 / 61.  3.100
  libavfilter    10.  4.100 / 10.  4.100
  libswscale      8.  3.100 /  8.  3.100
  libswresample   5.  3.100 /  5.  3.100
  libpostproc    58.  3.100 / 58.  3.100
[mov,mp4,m4a,3gp,3g2,mj2 @ 0000025472acfa00] Unknown cover type: 0x1.
ffmpeg version 7.1-full_build-www.gyan.dev Copyright (c) 2000-2024 the FFmpeg developers
  built with gcc 14.2.0 (Rev1, Built by MSYS2 project)
  configuration: --enable-gpl --enable-version3 --enable-static --disable-w32threads --disable-autodetect --enable-fontconfig --enable-iconv --enable-gnutls --enable-libxml2 --enable-gmp --enable-bzlib --enable-lzma --enable-libsnappy --enable-zlib --enable-librist --enable-libsrt --enable-libssh --enable-libzmq --enable-avisynth --enable-libbluray --enable-libcaca --enable-sdl2 --enable-libaribb24 --enable-libaribcaption --enable-libdav1d --enable-libdavs2 --enable-libopenjpeg --enable-libquirc --enable-libuavs3d --enable-libxevd --enable-libzvbi --enable-libqrencode --enable-librav1e --enable-libsvtav1 --enable-libvvenc --enable-libwebp --enable-libx264 --enable-libx265 --enable-libxavs2 --enable-libxeve --enable-libxvid --enable-libaom --enable-libjxl --enable-libvpx --enable-mediafoundation --enable-libass --enable-frei0r --enable-libfreetype --enable-libfribidi --enable-libharfbuzz --enable-liblensfun --enable-libvidstab --enable-libvmaf --enable-libzimg --enable-amf --enable-cuda-llvm --enable-cuvid --enable-dxva2 --enable-d3d11va --enable-d3d12va --enable-ffnvcodec --enable-libvpl --enable-nvdec --enable-nvenc --enable-vaapi --enable-libshaderc --enable-vulkan --enable-libplacebo --enable-opencl --enable-libcdio --enable-libgme --enable-libmodplug --enable-libopenmpt --enable-libopencore-amrwb --enable-libmp3lame --enable-libshine --enable-libtheora --enable-libtwolame --enable-libvo-amrwbenc --enable-libcodec2 --enable-libilbc --enable-libgsm --enable-liblc3 --enable-libopencore-amrnb --enable-libopus --enable-libspeex --enable-libvorbis --enable-ladspa --enable-libbs2b --enable-libflite --enable-libmysofa --enable-librubberband --enable-libsoxr --enable-chromaprint
  libavutil      59. 39.100 / 59. 39.100
  libavcodec     61. 19.100 / 61. 19.100
  libavformat    61.  7.100 / 61.  7.100
  libavdevice    61.  3.100 / 61.  3.100
  libavfilter    10.  4.100 / 10.  4.100
  libswscale      8.  3.100 /  8.  3.100
  libswresample   5.  3.100 /  5.  3.100
  libpostproc    58.  3.100 / 58.  3.100
[mov,mp4,m4a,3gp,3g2,mj2 @ 0000027299dafa00] Unknown cover type: 0x1.
ffmpeg version 7.1-full_build-www.gyan.dev Copyright (c) 2000-2024 the FFmpeg developers
  built with gcc 14.2.0 (Rev1, Built by MSYS2 project)
  configuration: --enable-gpl --enable-version3 --enable-static --disable-w32threads --disable-autodetect --enable-fontconfig --enable-iconv --enable-gnutls --enable-libxml2 --enable-gmp --enable-bzlib --enable-lzma --enable-libsnappy --enable-zlib --enable-librist --enable-libsrt --enable-libssh --enable-libzmq --enable-avisynth --enable-libbluray --enable-libcaca --enable-sdl2 --enable-libaribb24 --enable-libaribcaption --enable-libdav1d --enable-libdavs2 --enable-libopenjpeg --enable-libquirc --enable-libuavs3d --enable-libxevd --enable-libzvbi --enable-libqrencode --enable-librav1e --enable-libsvtav1 --enable-libvvenc --enable-libwebp --enable-libx264 --enable-libx265 --enable-libxavs2 --enable-libxeve --enable-libxvid --enable-libaom --enable-libjxl --enable-libvpx --enable-mediafoundation --enable-libass --enable-frei0r --enable-libfreetype --enable-libfribidi --enable-libharfbuzz --enable-liblensfun --enable-libvidstab --enable-libvmaf --enable-libzimg --enable-amf --enable-cuda-llvm --enable-cuvid --enable-dxva2 --enable-d3d11va --enable-d3d12va --enable-ffnvcodec --enable-libvpl --enable-nvdec --enable-nvenc --enable-vaapi --enable-libshaderc --enable-vulkan --enable-libplacebo --enable-opencl --enable-libcdio --enable-libgme --enable-libmodplug --enable-libopenmpt --enable-libopencore-amrwb --enable-libmp3lame --enable-libshine --enable-libtheora --enable-libtwolame --enable-libvo-amrwbenc --enable-libcodec2 --enable-libilbc --enable-libgsm --enable-liblc3 --enable-libopencore-amrnb --enable-libopus --enable-libspeex --enable-libvorbis --enable-ladspa --enable-libbs2b --enable-libflite --enable-libmysofa --enable-librubberband --enable-libsoxr --enable-chromaprint
  libavutil      59. 39.100 / 59. 39.100
  libavcodec     61. 19.100 / 61. 19.100
  libavformat    61.  7.100 / 61.  7.100
  libavdevice    61.  3.100 / 61.  3.100
  libavfilter    10.  4.100 / 10.  4.100
  libswscale      8.  3.100 /  8.  3.100
  libswresample   5.  3.100 /  5.  3.100
  libpostproc    58.  3.100 / 58.  3.100
[mov,mp4,m4a,3gp,3g2,mj2 @ 0000023e40d6fa00] Unknown cover type: 0x1.
ffmpeg version 7.1-full_build-www.gyan.dev Copyright (c) 2000-2024 the FFmpeg developers
  built with gcc 14.2.0 (Rev1, Built by MSYS2 project)
  configuration: --enable-gpl --enable-version3 --enable-static --disable-w32threads --disable-autodetect --enable-fontconfig --enable-iconv --enable-gnutls --enable-libxml2 --enable-gmp --enable-bzlib --enable-lzma --enable-libsnappy --enable-zlib --enable-librist --enable-libsrt --enable-libssh --enable-libzmq --enable-avisynth --enable-libbluray --enable-libcaca --enable-sdl2 --enable-libaribb24 --enable-libaribcaption --enable-libdav1d --enable-libdavs2 --enable-libopenjpeg --enable-libquirc --enable-libuavs3d --enable-libxevd --enable-libzvbi --enable-libqrencode --enable-librav1e --enable-libsvtav1 --enable-libvvenc --enable-libwebp --enable-libx264 --enable-libx265 --enable-libxavs2 --enable-libxeve --enable-libxvid --enable-libaom --enable-libjxl --enable-libvpx --enable-mediafoundation --enable-libass --enable-frei0r --enable-libfreetype --enable-libfribidi --enable-libharfbuzz --enable-liblensfun --enable-libvidstab --enable-libvmaf --enable-libzimg --enable-amf --enable-cuda-llvm --enable-cuvid --enable-dxva2 --enable-d3d11va --enable-d3d12va --enable-ffnvcodec --enable-libvpl --enable-nvdec --enable-nvenc --enable-vaapi --enable-libshaderc --enable-vulkan --enable-libplacebo --enable-opencl --enable-libcdio --enable-libgme --enable-libmodplug --enable-libopenmpt --enable-libopencore-amrwb --enable-libmp3lame --enable-libshine --enable-libtheora --enable-libtwolame --enable-libvo-amrwbenc --enable-libcodec2 --enable-libilbc --enable-libgsm --enable-liblc3 --enable-libopencore-amrnb --enable-libopus --enable-libspeex --enable-libvorbis --enable-ladspa --enable-libbs2b --enable-libflite --enable-libmysofa --enable-librubberband --enable-libsoxr --enable-chromaprint
  libavutil      59. 39.100 / 59. 39.100
  libavcodec     61. 19.100 / 61. 19.100
  libavformat    61.  7.100 / 61.  7.100
  libavdevice    61.  3.100 / 61.  3.100
  libavfilter    10.  4.100 / 10.  4.100
  libswscale      8.  3.100 /  8.  3.100
  libswresample   5.  3.100 /  5.  3.100
  libpostproc    58.  3.100 / 58.  3.100
Input #0, mov,mp4,m4a,3gp,3g2,mj2, from 'cam3depan.mp4':
  Metadata:
    major_brand     : isom
    minor_version   : 512
    compatible_brands: isomiso2avc1mp41
    creation_time   : 2025-02-22T15:55:03.000000Z
    Hw              : 0
    bitrate         : 6000000
    maxrate         : 15000000
    te_is_reencode  : 1
    encoder         : Lavf58.76.100
  Duration: 00:00:30.72, start: 0.000000, bitrate: 4897 kb/s
  Stream #0:0[0x1](und): Video: h264 (Main) (avc1 / 0x31637661), yuv420p(tv, smpte170m, progressive), 854x480, 4893 kb/s, 24 fps, 24 tbr, 12288 tbn (default)
      Metadata:
        creation_time   : 2025-02-22T15:55:03.000000Z
        handler_name    : VideoHandler
        vendor_id       : [0][0][0][0]
  Stream #0:1[0x2](und): Audio: aac (LC) (mp4a / 0x6134706D), 44100 Hz, stereo, fltp, 2 kb/s (default)
      Metadata:
        creation_time   : 2025-02-22T15:55:03.000000Z
        handler_name    : SoundHandler
        vendor_id       : [0][0][0][0]
Stream mapping:
  Stream #0:0 -> #0:0 (copy)
  Stream #0:1 -> #0:1 (copy)
Output #0, hls, to 'hls_streams/stream1/index.m3u8':
  Metadata:
    major_brand     : isom
    minor_version   : 512
    compatible_brands: isomiso2avc1mp41
    te_is_reencode  : 1
    Hw              : 0
    bitrate         : 6000000
    maxrate         : 15000000
    encoder         : Lavf61.7.100
  Stream #0:0(und): Video: h264 (Main) (avc1 / 0x31637661), yuv420p(tv, smpte170m, progressive), 854x480, q=2-31, 4893 kb/s, 24 fps, 24 tbr, 90k tbn (default)
      Metadata:
        creation_time   : 2025-02-22T15:55:03.000000Z
        handler_name    : VideoHandler
        vendor_id       : [0][0][0][0]
  Stream #0:1(und): Audio: aac (LC) (mp4a / 0x6134706D), 44100 Hz, stereo, fltp, 2 kb/s (default)
      Metadata:
        creation_time   : 2025-02-22T15:55:03.000000Z
        handler_name    : SoundHandler
        vendor_id       : [0][0][0][0]
Press [q] to stop, [?] for help
[mov,mp4,m4a,3gp,3g2,mj2 @ 000001ca099cfa00] Unknown cover type: 0x1.
Input #0, mov,mp4,m4a,3gp,3g2,mj2, from 'cam2kiri.mp4':
  Metadata:
    major_brand     : isom
    minor_version   : 512
    compatible_brands: isomiso2avc1mp41
    creation_time   : 2025-02-22T15:51:04.000000Z
    Hw              : 0
    bitrate         : 6000000
    maxrate         : 15000000
    te_is_reencode  : 1
    encoder         : Lavf58.76.100
  Duration: 00:00:30.72, start: 0.000000, bitrate: 4901 kb/s
  Stream #0:0[0x1](und): Video: h264 (Main) (avc1 / 0x31637661), yuv420p(tv, smpte170m, progressive), 854x480, 4897 kb/s, 24 fps, 24 tbr, 12288 tbn (default)
      Metadata:
        creation_time   : 2025-02-22T15:51:04.000000Z
        handler_name    : VideoHandler
        vendor_id       : [0][0][0][0]
  Stream #0:1[0x2](und): Audio: aac (LC) (mp4a / 0x6134706D), 44100 Hz, stereo, fltp, 2 kb/s (default)
      Metadata:
        creation_time   : 2025-02-22T15:51:04.000000Z
        handler_name    : SoundHandler
        vendor_id       : [0][0][0][0]
Stream mapping:
  Stream #0:0 -> #0:0 (copy)
  Stream #0:1 -> #0:1 (copy)
Output #0, hls, to 'hls_streams/stream2/index.m3u8':
  Metadata:
    major_brand     : isom
    minor_version   : 512
    compatible_brands: isomiso2avc1mp41
    te_is_reencode  : 1
    Hw              : 0
    bitrate         : 6000000
    maxrate         : 15000000
    encoder         : Lavf61.7.100
  Stream #0:0(und): Video: h264 (Main) (avc1 / 0x31637661), yuv420p(tv, smpte170m, progressive), 854x480, q=2-31, 4897 kb/s, 24 fps, 24 tbr, 90k tbn (default)
      Metadata:
        creation_time   : 2025-02-22T15:51:04.000000Z
        handler_name    : VideoHandler
        vendor_id       : [0][0][0][0]
  Stream #0:1(und): Audio: aac (LC) (mp4a / 0x6134706D), 44100 Hz, stereo, fltp, 2 kb/s (default)
      Metadata:
        creation_time   : 2025-02-22T15:51:04.000000Z
        handler_name    : SoundHandler
        vendor_id       : [0][0][0][0]
Press [q] to stop, [?] for help
Input #0, mov,mp4,m4a,3gp,3g2,mj2, from 'cam1kanan.mp4':
  Metadata:
    major_brand     : isom
    minor_version   : 512
    compatible_brands: isomiso2avc1mp41
    creation_time   : 2025-02-22T15:54:31.000000Z
    Hw              : 0
    bitrate         : 6000000
    maxrate         : 15000000
    te_is_reencode  : 1
    encoder         : Lavf58.76.100
  Duration: 00:00:30.72, start: 0.000000, bitrate: 4913 kb/s
  Stream #0:0[0x1](und): Video: h264 (Main) (avc1 / 0x31637661), yuv420p(tv, smpte170m, progressive), 854x480, 4909 kb/s, 24 fps, 24 tbr, 12288 tbn (default)
      Metadata:
        creation_time   : 2025-02-22T15:54:31.000000Z
        handler_name    : VideoHandler
        vendor_id       : [0][0][0][0]
  Stream #0:1[0x2](und): Audio: aac (LC) (mp4a / 0x6134706D), 44100 Hz, stereo, fltp, 2 kb/s (default)
      Metadata:
        creation_time   : 2025-02-22T15:54:31.000000Z
        handler_name    : SoundHandler
        vendor_id       : [0][0][0][0]
Stream mapping:
  Stream #0:0 -> #0:0 (copy)
  Stream #0:1 -> #0:1 (copy)
Output #0, hls, to 'hls_streams/stream3/index.m3u8':
  Metadata:
    major_brand     : isom
    minor_version   : 512
    compatible_brands: isomiso2avc1mp41
    te_is_reencode  : 1
    Hw              : 0
    bitrate         : 6000000
    maxrate         : 15000000
    encoder         : Lavf61.7.100
  Stream #0:0(und): Video: h264 (Main) (avc1 / 0x31637661), yuv420p(tv, smpte170m, progressive), 854x480, q=2-31, 4909 kb/s, 24 fps, 24 tbr, 90k tbn (default)
      Metadata:
        creation_time   : 2025-02-22T15:54:31.000000Z
        handler_name    : VideoHandler
        vendor_id       : [0][0][0][0]
  Stream #0:1(und): Audio: aac (LC) (mp4a / 0x6134706D), 44100 Hz, stereo, fltp, 2 kb/s (default)
      Metadata:
        creation_time   : 2025-02-22T15:54:31.000000Z
        handler_name    : SoundHandler
        vendor_id       : [0][0][0][0]
Press [q] to stop, [?] for help
2025/02/24 12:55:28 INF [WebRTC] listener opened on :8889 (HTTP), :8189 (ICE/UDP)
2025/02/24 12:55:28 INF [SRT] listener opened on :8890 (UDP)
Input #0, mov,mp4,m4a,3gp,3g2,mj2, from 'cam5bni.mp4':
  Metadata:
    major_brand     : isom
    minor_version   : 512
    compatible_brands: isomiso2avc1mp41
    creation_time   : 2024-11-27T03:29:08.000000Z
    Hw              : 1
    bitrate         : 12000000
    maxrate         : 0
    te_is_reencode  : 1
    encoder         : Lavf58.76.100
  Duration: 00:00:30.42, start: 0.000000, bitrate: 17097 kb/s
  Stream #0:0[0x1](und): Video: h264 (High) (avc1 / 0x31637661), yuv420p(tv, bt709, progressive), 1920x1080 [SAR 1:1 DAR 16:9], 17101 kb/s, 30 fps, 30 tbr, 15360 tbn (default)
      Metadata:
        creation_time   : 2024-11-27T03:29:08.000000Z
        handler_name    : VideoHandler
        vendor_id       : [0][0][0][0]
  Stream #0:1[0x2](und): Audio: aac (LC) (mp4a / 0x6134706D), 44100 Hz, stereo, fltp, 2 kb/s (default)
      Metadata:
        creation_time   : 2024-11-27T03:29:08.000000Z
        handler_name    : SoundHandler
        vendor_id       : [0][0][0][0]
Stream mapping:
  Stream #0:0 -> #0:0 (copy)
  Stream #0:1 -> #0:1 (copy)
Output #0, hls, to 'hls_streams/stream4/index.m3u8':
  Metadata:
    major_brand     : isom
    minor_version   : 512
    compatible_brands: isomiso2avc1mp41
    te_is_reencode  : 1
    Hw              : 1
    bitrate         : 12000000
    maxrate         : 0
    encoder         : Lavf61.7.100
  Stream #0:0(und): Video: h264 (High) (avc1 / 0x31637661), yuv420p(tv, bt709, progressive), 1920x1080 [SAR 1:1 DAR 16:9], q=2-31, 17101 kb/s, 30 fps, 30 tbr, 90k tbn (default)
      Metadata:
        creation_time   : 2024-11-27T03:29:08.000000Z
        handler_name    : VideoHandler
        vendor_id       : [0][0][0][0]
  Stream #0:1(und): Audio: aac (LC) (mp4a / 0x6134706D), 44100 Hz, stereo, fltp, 2 kb/s (default)
      Metadata:
        creation_time   : 2024-11-27T03:29:08.000000Z
        handler_name    : SoundHandler
        vendor_id       : [0][0][0][0]
Press [q] to stop, [?] for help
frame=    0 fps=0.0 q=-1.0 size=N/A time=N/A bitrate=N/A speed=N/A    frame=    1 fps=0.0 q=-1.0 size=N/A time=00:00:00.04 bitrate=N/A speed=0.0811x    frame=    1 fps=0.0 q=-1.0 size=N/A time=00:00:00.04 bitrate=N/A speed=0.0803x    frame=    1 fps=0.0 q=-1.0 size=N/A time=00:00:00.03 bitrate=N/A speed=0.0653x    frame=   13 fps= 13 q=-1.0 size=N/A time=00:00:00.54 bitrate=N/A speed=0.528x    frame=   13 fps= 13 q=-1.0 size=N/A time=00:00:00.54 bitrate=N/A speed=0.524x    frame=   13 fps= 13 q=-1.0 size=N/A time=00:00:00.54 bitrate=N/A speed=0.526x    frame=   16 fps= 16 q=-1.0 size=N/A time=00:00:00.53 bitrate=N/A speed=0.52x    frame=   26 fps= 17 q=-1.0 size=N/A time=00:00:01.08 bitrate=N/A speed=0.702x    frame=   26 fps= 17 q=-1.0 size=N/A time=00:00:01.08 bitrate=N/A speed=0.699x    frame=   26 fps= 17 q=-1.0 size=N/A time=00:00:01.08 bitrate=N/A speed=0.703x    frame=   32 fps= 21 q=-1.0 size=N/A time=00:00:01.06 bitrate=N/A speed=0.693x    frame=   38 fps= 18 q=-1.0 size=N/A time=00:00:01.58 bitrate=N/A speed=0.769x    frame=   38 fps= 18 q=-1.0 size=N/A time=00:00:01.58 bitrate=N/A speed=0.771x    frame=   38 fps= 18 q=-1.0 size=N/A time=00:00:01.58 bitrate=N/A speed=0.767x    frame=   47 fps= 23 q=-1.0 size=N/A time=00:00:01.56 bitrate=N/A speed=0.763x    frame=   50 fps= 19 q=-1.0 size=N/A time=00:00:02.08 bitrate=N/A speed=0.809x    frame=   51 fps= 20 q=-1.0 size=N/A time=00:00:02.08 bitrate=N/A speed=0.808x    frame=   51 fps= 20 q=-1.0 size=N/A time=00:00:02.08 bitrate=N/A speed=0.81x    frame=   62 fps= 24 q=-1.0 size=N/A time=00:00:02.06 bitrate=N/A speed=0.804x    frame=   63 fps= 20 q=-1.0 size=N/A time=00:00:02.62 bitrate=N/A speed=0.851x    frame=   63 fps= 20 q=-1.0 size=N/A time=00:00:02.62 bitrate=N/A speed=0.85x    frame=   63 fps= 20 q=-1.0 size=N/A time=00:00:02.62 bitrate=N/A speed=0.849x    frame=   78 fps= 25 q=-1.0 size=N/A time=00:00:02.60 bitrate=N/A speed=0.843x    frame=   76 fps= 21 q=-1.0 size=N/A time=00:00:03.16 bitrate=N/A speed=0.877x    frame=   75 fps= 21 q=-1.0 size=N/A time=00:00:03.12 bitrate=N/A speed=0.867x    frame=   75 fps= 21 q=-1.0 size=N/A time=00:00:03.12 bitrate=N/A speed=0.867x    frame=   94 fps= 26 q=-1.0 size=N/A time=00:00:03.13 bitrate=N/A speed=0.87x    frame=   88 fps= 21 q=-1.0 size=N/A time=00:00:03.66 bitrate=N/A speed=0.89x    frame=   88 fps= 21 q=-1.0 size=N/A time=00:00:03.66 bitrate=N/A speed=0.889x    frame=   88 fps= 21 q=-1.0 size=N/A time=00:00:03.66 bitrate=N/A speed=0.888x    frame=  109 fps= 26 q=-1.0 size=N/A time=00:00:03.63 bitrate=N/A speed=0.882x    [hls @ 0000023e40d789c0][hls @ 00000254731fa040] Opening 'hls_streams/stream1/segment_032.ts' for writing
 Opening 'hls_streams/stream3/segment_032.ts' for writing
[hls @ 0000027299dab840] Opening 'hls_streams/stream2/segment_032.ts' for writing
[hls @ 00000254731fa040] Opening 'hls_streams/stream1/index.m3u8.tmp' for writing
[hls @ 0000027299dab840][hls @ 0000023e40d789c0]  Opening 'hls_streams/stream2/index.m3u8.tmp' for writing
Opening 'hls_streams/stream3/index.m3u8.tmp' for writing
[hls @ 000001ca099f3ec0] Opening 'hls_streams/stream4/segment_032.ts' for writing
[hls @ 000001ca099f3ec0] Opening 'hls_streams/stream4/index.m3u8.tmp' for writing
frame=  100 fps= 22 q=-1.0 size=N/A time=00:00:04.16 bitrate=N/A speed=0.899x    frame=  100 fps= 22 q=-1.0 size=N/A time=00:00:04.16 bitrate=N/A speed=0.897x    frame=  100 fps= 22 q=-1.0 size=N/A time=00:00:04.16 bitrate=N/A speed=0.898x    frame=  124 fps= 27 q=-1.0 size=N/A time=00:00:04.13 bitrate=N/A speed=0.892x    frame=  112 fps= 22 q=-1.0 size=N/A time=00:00:04.66 bitrate=N/A speed=0.903x    frame=  112 fps= 22 q=-1.0 size=N/A time=00:00:04.66 bitrate=N/A speed=0.905x    frame=  112 fps= 22 q=-1.0 size=N/A time=00:00:04.66 bitrate=N/A speed=0.904x    frame=  140 fps= 27 q=-1.0 size=N/A time=00:00:04.66 bitrate=N/A speed=0.905x    frame=  125 fps= 22 q=-1.0 size=N/A time=00:00:05.20 bitrate=N/A speed=0.917x    frame=  125 fps= 22 q=-1.0 size=N/A time=00:00:05.20 bitrate=N/A speed=0.917x    frame=  125 fps= 22 q=-1.0 size=N/A time=00:00:05.20 bitrate=N/A speed=0.918x    frame=  156 fps= 27 q=-1.0 size=N/A time=00:00:05.20 bitrate=N/A speed=0.916x    frame=  138 fps= 22 q=-1.0 size=N/A time=00:00:05.75 bitrate=N/A speed=0.927x    frame=  138 fps= 22 q=-1.0 size=N/A time=00:00:05.75 bitrate=N/A speed=0.929x    frame=  138 fps= 22 q=-1.0 size=N/A time=00:00:05.75 bitrate=N/A speed=0.928x    frame=  172 fps= 28 q=-1.0 size=N/A time=00:00:05.70 bitrate=N/A speed=0.921x    frame=  149 fps= 22 q=-1.0 size=N/A time=00:00:06.20 bitrate=N/A speed=0.927x    frame=  149 fps= 22 q=-1.0 size=N/A time=00:00:06.20 bitrate=N/A speed=0.927x    frame=  150 fps= 22 q=-1.0 size=N/A time=00:00:06.25 bitrate=N/A speed=0.932x    frame=  186 fps= 28 q=-1.0 size=N/A time=00:00:06.20 bitrate=N/A speed=0.926x    frame=  162 fps= 22 q=-1.0 size=N/A time=00:00:06.75 bitrate=N/A speed=0.935x    frame=  162 fps= 22 q=-1.0 size=N/A time=00:00:06.75 bitrate=N/A speed=0.935x    frame=  162 fps= 22 q=-1.0 size=N/A time=00:00:06.75 bitrate=N/A speed=0.936x    frame=  202 fps= 28 q=-1.0 size=N/A time=00:00:06.73 bitrate=N/A speed=0.933x    frame=  174 fps= 22 q=-1.0 size=N/A time=00:00:07.25 bitrate=N/A speed=0.937x    frame=  174 fps= 23 q=-1.0 size=N/A time=00:00:07.25 bitrate=N/A speed=0.938x    frame=  174 fps= 23 q=-1.0 size=N/A time=00:00:07.25 bitrate=N/A speed=0.938x    frame=  218 fps= 28 q=-1.0 size=N/A time=00:00:07.26 bitrate=N/A speed=0.94x    frame=  187 fps= 23 q=-1.0 size=N/A time=00:00:07.79 bitrate=N/A speed=0.945x    frame=  187 fps= 23 q=-1.0 size=N/A time=00:00:07.79 bitrate=N/A speed=0.944x    frame=  187 fps= 23 q=-1.0 size=N/A time=00:00:07.79 bitrate=N/A speed=0.944x    frame=  233 fps= 28 q=-1.0 size=N/A time=00:00:07.76 bitrate=N/A speed=0.942x    [hls @ 00000254731fa040] Opening 'hls_streams/stream1/segment_033.ts' for writing
[hls @ 00000254731fa040] Opening 'hls_streams/stream1/index.m3u8.tmp' for writing
[hls @ 0000027299dab840] [hls @ 0000023e40d789c0]Opening 'hls_streams/stream2/segment_033.ts' for writing 
Opening 'hls_streams/stream3/segment_033.ts' for writing
[hls @ 0000027299dab840] Opening 'hls_streams/stream2/index.m3u8.tmp' for writing
[hls @ 0000023e40d789c0] Opening 'hls_streams/stream3/index.m3u8.tmp' for writing
[hls @ 000001ca099f3ec0] Opening 'hls_streams/stream4/segment_033.ts' for writing
[hls @ 000001ca099f3ec0] Opening 'hls_streams/stream4/index.m3u8.tmp' for writing
frame=  199 fps= 23 q=-1.0 size=N/A time=00:00:08.29 bitrate=N/A speed=0.945x    frame=  199 fps= 23 q=-1.0 size=N/A time=00:00:08.29 bitrate=N/A speed=0.946x    frame=  199 fps= 23 q=-1.0 size=N/A time=00:00:08.29 bitrate=N/A speed=0.946x    frame=  248 fps= 28 q=-1.0 size=N/A time=00:00:08.26 bitrate=N/A speed=0.943x    frame=  212 fps= 23 q=-1.0 size=N/A time=00:00:08.83 bitrate=N/A speed=0.951x    frame=  211 fps= 23 q=-1.0 size=N/A time=00:00:08.79 bitrate=N/A speed=0.947x    frame=  212 fps= 23 q=-1.0 size=N/A time=00:00:08.83 bitrate=N/A speed=0.951x    frame=  264 fps= 28 q=-1.0 size=N/A time=00:00:08.80 bitrate=N/A speed=0.948x    frame=  223 fps= 23 q=-1.0 size=N/A time=00:00:09.29 bitrate=N/A speed=0.949x    frame=  224 fps= 23 q=-1.0 size=N/A time=00:00:09.29 bitrate=N/A speed=0.949x    frame=  224 fps= 23 q=-1.0 size=N/A time=00:00:09.33 bitrate=N/A speed=0.953x    frame=  279 fps= 29 q=-1.0 size=N/A time=00:00:09.30 bitrate=N/A speed=0.95x    frame=  236 fps= 23 q=-1.0 size=N/A time=00:00:09.83 bitrate=N/A speed=0.954x    frame=  236 fps= 23 q=-1.0 size=N/A time=00:00:09.83 bitrate=N/A speed=0.954x    frame=  236 fps= 23 q=-1.0 size=N/A time=00:00:09.83 bitrate=N/A speed=0.954x    frame=  295 fps= 29 q=-1.0 size=N/A time=00:00:09.80 bitrate=N/A speed=0.951x    frame=  248 fps= 23 q=-1.0 size=N/A time=00:00:10.33 bitrate=N/A speed=0.954x    frame=  248 fps= 23 q=-1.0 size=N/A time=00:00:10.33 bitrate=N/A speed=0.955x    frame=  248 fps= 23 q=-1.0 size=N/A time=00:00:10.33 bitrate=N/A speed=0.955x    frame=  310 fps= 29 q=-1.0 size=N/A time=00:00:10.33 bitrate=N/A speed=0.955x    frame=  261 fps= 23 q=-1.0 size=N/A time=00:00:10.87 bitrate=N/A speed=0.959x    frame=  261 fps= 23 q=-1.0 size=N/A time=00:00:10.87 bitrate=N/A speed=0.959x    frame=  261 fps= 23 q=-1.0 size=N/A time=00:00:10.87 bitrate=N/A speed=0.958x    frame=  326 fps= 29 q=-1.0 size=N/A time=00:00:10.86 bitrate=N/A speed=0.958x    frame=  273 fps= 23 q=-1.0 size=N/A time=00:00:11.37 bitrate=N/A speed=0.959x    frame=  274 fps= 23 q=-1.0 size=N/A time=00:00:11.41 bitrate=N/A speed=0.963x    frame=  273 fps= 23 q=-1.0 size=N/A time=00:00:11.37 bitrate=N/A speed=0.96x    frame=  341 fps= 29 q=-1.0 size=N/A time=00:00:11.36 bitrate=N/A speed=0.959x    frame=  285 fps= 23 q=-1.0 size=N/A time=00:00:11.87 bitrate=N/A speed=0.959x    frame=  286 fps= 23 q=-1.0 size=N/A time=00:00:11.91 bitrate=N/A speed=0.963x    frame=  286 fps= 23 q=-1.0 size=N/A time=00:00:11.91 bitrate=N/A speed=0.963x    frame=  357 fps= 29 q=-1.0 size=N/A time=00:00:11.90 bitrate=N/A speed=0.962x    [hls @ 0000027299dab840][hls @ 00000254731fa040]  Opening 'hls_streams/stream2/segment_034.ts' for writingOpening 'hls_streams/stream1/segment_034.ts' for writing

[hls @ 0000027299dab840] Opening 'hls_streams/stream2/index.m3u8.tmp' for writing
[hls @ 00000254731fa040] Opening 'hls_streams/stream1/index.m3u8.tmp' for writing
[hls @ 0000023e40d789c0] Opening 'hls_streams/stream3/segment_034.ts' for writing
[hls @ 0000023e40d789c0] Opening 'hls_streams/stream3/index.m3u8.tmp' for writing
[hls @ 000001ca099f3ec0] Opening 'hls_streams/stream4/segment_034.ts' for writing
[hls @ 000001ca099f3ec0] Opening 'hls_streams/stream4/index.m3u8.tmp' for writing
frame=  298 fps= 23 q=-1.0 size=N/A time=00:00:12.41 bitrate=N/A speed=0.963x    frame=  298 fps= 23 q=-1.0 size=N/A time=00:00:12.41 bitrate=N/A speed=0.963x    frame=  298 fps= 23 q=-1.0 size=N/A time=00:00:12.41 bitrate=N/A speed=0.964x    frame=  372 fps= 29 q=-1.0 size=N/A time=00:00:12.40 bitrate=N/A speed=0.962x    frame=  311 fps= 23 q=-1.0 size=N/A time=00:00:12.95 bitrate=N/A speed=0.966x    frame=  310 fps= 23 q=-1.0 size=N/A time=00:00:12.91 bitrate=N/A speed=0.963x    frame=  310 fps= 23 q=-1.0 size=N/A time=00:00:12.91 bitrate=N/A speed=0.964x    frame=  388 fps= 29 q=-1.0 size=N/A time=00:00:12.93 bitrate=N/A speed=0.965x    frame=  323 fps= 23 q=-1.0 size=N/A time=00:00:13.45 bitrate=N/A speed=0.966x    frame=  323 fps= 23 q=-1.0 size=N/A time=00:00:13.45 bitrate=N/A speed=0.966x    frame=  323 fps= 23 q=-1.0 size=N/A time=00:00:13.45 bitrate=N/A speed=0.967x    frame=  403 fps= 29 q=-1.0 size=N/A time=00:00:13.43 bitrate=N/A speed=0.965x    frame=  335 fps= 23 q=-1.0 size=N/A time=00:00:13.95 bitrate=N/A speed=0.967x    frame=  335 fps= 23 q=-1.0 size=N/A time=00:00:13.95 bitrate=N/A speed=0.966x    frame=  335 fps= 23 q=-1.0 size=N/A time=00:00:13.95 bitrate=N/A speed=0.967x    frame=  419 fps= 29 q=-1.0 size=N/A time=00:00:13.96 bitrate=N/A speed=0.967x    frame=  348 fps= 23 q=-1.0 size=N/A time=00:00:14.50 bitrate=N/A speed=0.969x    frame=  348 fps= 23 q=-1.0 size=N/A time=00:00:14.50 bitrate=N/A speed=0.969x    frame=  347 fps= 23 q=-1.0 size=N/A time=00:00:14.45 bitrate=N/A speed=0.967x    frame=  435 fps= 29 q=-1.0 size=N/A time=00:00:14.50 bitrate=N/A speed=0.969x    frame=  359 fps= 23 q=-1.0 size=N/A time=00:00:14.95 bitrate=N/A speed=0.968x    frame=  359 fps= 23 q=-1.0 size=N/A time=00:00:14.95 bitrate=N/A speed=0.967x    frame=  359 fps= 23 q=-1.0 size=N/A time=00:00:14.95 bitrate=N/A speed=0.967x    frame=  450 fps= 29 q=-1.0 size=N/A time=00:00:15.00 bitrate=N/A speed=0.969x    frame=  372 fps= 23 q=-1.0 size=N/A time=00:00:15.50 bitrate=N/A speed=0.97x    frame=  372 fps= 23 q=-1.0 size=N/A time=00:00:15.50 bitrate=N/A speed=0.97x    frame=  372 fps= 23 q=-1.0 size=N/A time=00:00:15.50 bitrate=N/A speed=0.97x    frame=  465 fps= 29 q=-1.0 size=N/A time=00:00:15.50 bitrate=N/A speed=0.969x    frame=  384 fps= 23 q=-1.0 size=N/A time=00:00:16.00 bitrate=N/A speed=0.969x    frame=  385 fps= 23 q=-1.0 size=N/A time=00:00:16.04 bitrate=N/A speed=0.972x    frame=  384 fps= 23 q=-1.0 size=N/A time=00:00:16.00 bitrate=N/A speed=0.97x    [hls @ 0000027299dab840] Opening 'hls_streams/stream2/segment_035.ts' for writing
[hls @ 00000254731fa040] Opening 'hls_streams/stream1/segment_035.ts' for writing
[hls @ 00000254731fa040] Opening 'hls_streams/stream1/index.m3u8.tmp' for writing
[hls @ 0000027299dab840] Opening 'hls_streams/stream2/index.m3u8.tmp' for writing
[hls @ 0000023e40d789c0] Opening 'hls_streams/stream3/segment_035.ts' for writing
[hls @ 0000023e40d789c0] Opening 'hls_streams/stream3/index.m3u8.tmp' for writing
frame=  480 fps= 29 q=-1.0 size=N/A time=00:00:16.00 bitrate=N/A speed=0.969x    [hls @ 000001ca099f3ec0] Opening 'hls_streams/stream4/segment_035.ts' for writing
[hls @ 000001ca099f3ec0] Opening 'hls_streams/stream4/index.m3u8.tmp' for writing
frame=  397 fps= 23 q=-1.0 size=N/A time=00:00:16.54 bitrate=N/A speed=0.972x    frame=  397 fps= 23 q=-1.0 size=N/A time=00:00:16.54 bitrate=N/A speed=0.972x    frame=  397 fps= 23 q=-1.0 size=N/A time=00:00:16.54 bitrate=N/A speed=0.972x    frame=  496 fps= 29 q=-1.0 size=N/A time=00:00:16.53 bitrate=N/A speed=0.971x    frame=  410 fps= 23 q=-1.0 size=N/A time=00:00:17.08 bitrate=N/A speed=0.975x    frame=  410 fps= 23 q=-1.0 size=N/A time=00:00:17.04 bitrate=N/A speed=0.972x    frame=  410 fps= 23 q=-1.0 size=N/A time=00:00:17.08 bitrate=N/A speed=0.974x    frame=  512 fps= 29 q=-1.0 size=N/A time=00:00:17.06 bitrate=N/A speed=0.973x    frame=  422 fps= 23 q=-1.0 size=N/A time=00:00:17.58 bitrate=N/A speed=0.974x    frame=  421 fps= 23 q=-1.0 size=N/A time=00:00:17.54 bitrate=N/A speed=0.972x    frame=  421 fps= 23 q=-1.0 size=N/A time=00:00:17.54 bitrate=N/A speed=0.972x    frame=  527 fps= 29 q=-1.0 size=N/A time=00:00:17.56 bitrate=N/A speed=0.973x    frame=  433 fps= 23 q=-1.0 size=N/A time=00:00:18.04 bitrate=N/A speed=0.972x    frame=  434 fps= 23 q=-1.0 size=N/A time=00:00:18.08 bitrate=N/A speed=0.974x    frame=  434 fps= 23 q=-1.0 size=N/A time=00:00:18.08 bitrate=N/A speed=0.975x    frame=  542 fps= 29 q=-1.0 size=N/A time=00:00:18.06 bitrate=N/A speed=0.972x    frame=  446 fps= 23 q=-1.0 size=N/A time=00:00:18.58 bitrate=N/A speed=0.974x    frame=  446 fps= 23 q=-1.0 size=N/A time=00:00:18.58 bitrate=N/A speed=0.974x    frame=  447 fps= 23 q=-1.0 size=N/A time=00:00:18.58 bitrate=N/A speed=0.974x    frame=  558 fps= 29 q=-1.0 size=N/A time=00:00:18.60 bitrate=N/A speed=0.974x    frame=  459 fps= 23 q=-1.0 size=N/A time=00:00:19.12 bitrate=N/A speed=0.976x    frame=  459 fps= 23 q=-1.0 size=N/A time=00:00:19.12 bitrate=N/A speed=0.975x    frame=  459 fps= 23 q=-1.0 size=N/A time=00:00:19.12 bitrate=N/A speed=0.976x    frame=  573 fps= 29 q=-1.0 size=N/A time=00:00:19.10 bitrate=N/A speed=0.975x    [hls @ 000001ca099f3ec0] Opening 'hls_streams/stream4/segment_036.ts' for writing
[hls @ 000001ca099f3ec0] Opening 'hls_streams/stream4/index.m3u8.tmp' for writing
frame=  471 fps= 23 q=-1.0 size=N/A time=00:00:19.62 bitrate=N/A speed=0.976x    frame=  471 fps= 23 q=-1.0 size=N/A time=00:00:19.62 bitrate=N/A speed=0.976x    frame=  471 fps= 23 q=-1.0 size=N/A time=00:00:19.62 bitrate=N/A speed=0.976x    frame=  619 fps= 31 q=-1.0 size=N/A time=00:00:20.61 bitrate=N/A speed=1.02x    [hls @ 0000027299dab840] Opening 'hls_streams/stream2/segment_036.ts' for writing
[hls @ 00000254731fa040] Opening 'hls_streams/stream1/segment_036.ts' for writing
[hls @ 0000023e40d789c0] Opening 'hls_streams/stream3/segment_036.ts' for writing
[hls @ 0000027299dab840] Opening 'hls_streams/stream2/index.m3u8.tmp' for writing
[hls @ 00000254731fa040] Opening 'hls_streams/stream1/index.m3u8.tmp' for writing
[hls @ 0000023e40d789c0] Opening 'hls_streams/stream3/index.m3u8.tmp' for writing
frame=  508 fps= 25 q=-1.0 size=N/A time=00:00:21.13 bitrate=N/A speed=1.02x    frame=  507 fps= 25 q=-1.0 size=N/A time=00:00:21.12 bitrate=N/A speed=1.02x    frame=  507 fps= 25 q=-1.0 size=N/A time=00:00:21.12 bitrate=N/A speed=1.02x    frame=  634 fps= 31 q=-1.0 size=N/A time=00:00:21.13 bitrate=N/A speed=1.02x    frame=  520 fps= 25 q=-1.0 size=N/A time=00:00:21.66 bitrate=N/A speed=1.02x    frame=  520 fps= 25 q=-1.0 size=N/A time=00:00:21.66 bitrate=N/A speed=1.02x    frame=  520 fps= 25 q=-1.0 size=N/A time=00:00:21.64 bitrate=N/A speed=1.02x    frame=  650 fps= 31 q=-1.0 size=N/A time=00:00:21.66 bitrate=N/A speed=1.02x    frame=  532 fps= 25 q=-1.0 size=N/A time=00:00:22.15 bitrate=N/A speed=1.02x    frame=  532 fps= 25 q=-1.0 size=N/A time=00:00:22.16 bitrate=N/A speed=1.02x    frame=  532 fps= 25 q=-1.0 size=N/A time=00:00:22.16 bitrate=N/A speed=1.02x    frame=  666 fps= 31 q=-1.0 size=N/A time=00:00:22.17 bitrate=N/A speed=1.02x    frame=  545 fps= 25 q=-1.0 size=N/A time=00:00:22.68 bitrate=N/A speed=1.02x    frame=  545 fps= 25 q=-1.0 size=N/A time=00:00:22.68 bitrate=N/A speed=1.02x    frame=  545 fps= 25 q=-1.0 size=N/A time=00:00:22.68 bitrate=N/A speed=1.02x    frame=  681 fps= 31 q=-1.0 size=N/A time=00:00:22.70 bitrate=N/A speed=1.02x    frame=  557 fps= 25 q=-1.0 size=N/A time=00:00:23.19 bitrate=N/A speed=1.02x    frame=  557 fps= 25 q=-1.0 size=N/A time=00:00:23.19 bitrate=N/A speed=1.02x    frame=  557 fps= 25 q=-1.0 size=N/A time=00:00:23.19 bitrate=N/A speed=1.02x    frame=  697 fps= 31 q=-1.0 size=N/A time=00:00:23.22 bitrate=N/A speed=1.02x    frame=  570 fps= 25 q=-1.0 size=N/A time=00:00:23.73 bitrate=N/A speed=1.02x    frame=  570 fps= 25 q=-1.0 size=N/A time=00:00:23.73 bitrate=N/A speed=1.02x    frame=  570 fps= 25 q=-1.0 size=N/A time=00:00:23.75 bitrate=N/A speed=1.02x    frame=  712 fps= 31 q=-1.0 size=N/A time=00:00:23.73 bitrate=N/A speed=1.02x    [hls @ 00000254731fa040] Opening 'hls_streams/stream1/segment_037.ts' for writing
[hls @ 00000254731fa040] Opening 'hls_streams/stream1/index.m3u8.tmp' for writing
[hls @ 0000023e40d789c0][hls @ 0000027299dab840] Opening 'hls_streams/stream3/segment_037.ts' for writing
 Opening 'hls_streams/stream2/segment_037.ts' for writing
[hls @ 0000023e40d789c0] Opening 'hls_streams/stream3/index.m3u8.tmp' for writing
[hls @ 0000027299dab840] Opening 'hls_streams/stream2/index.m3u8.tmp' for writing
[hls @ 000001ca099f3ec0] Opening 'hls_streams/stream4/segment_037.ts' for writing
[hls @ 000001ca099f3ec0] Opening 'hls_streams/stream4/index.m3u8.tmp' for writing
frame=  582 fps= 25 q=-1.0 size=N/A time=00:00:24.25 bitrate=N/A speed=1.02x    frame=  582 fps= 25 q=-1.0 size=N/A time=00:00:24.25 bitrate=N/A speed=1.02x    frame=  583 fps= 25 q=-1.0 size=N/A time=00:00:24.26 bitrate=N/A speed=1.02x    frame=  728 fps= 31 q=-1.0 size=N/A time=00:00:24.26 bitrate=N/A speed=1.02x    frame=  595 fps= 25 q=-1.0 size=N/A time=00:00:24.75 bitrate=N/A speed=1.02x    frame=  595 fps= 25 q=-1.0 size=N/A time=00:00:24.75 bitrate=N/A speed=1.02x    frame=  595 fps= 25 q=-1.0 size=N/A time=00:00:24.77 bitrate=N/A speed=1.02x    frame=  743 fps= 31 q=-1.0 size=N/A time=00:00:24.75 bitrate=N/A speed=1.02x    frame=  607 fps= 24 q=-1.0 size=N/A time=00:00:25.28 bitrate=N/A speed=1.02x    frame=  607 fps= 24 q=-1.0 size=N/A time=00:00:25.28 bitrate=N/A speed=1.02x    frame=  607 fps= 24 q=-1.0 size=N/A time=00:00:25.28 bitrate=N/A speed=1.02x    frame=  758 fps= 31 q=-1.0 size=N/A time=00:00:25.26 bitrate=N/A speed=1.02x    frame=  619 fps= 24 q=-1.0 size=N/A time=00:00:25.79 bitrate=N/A speed=1.02x    frame=  619 fps= 24 q=-1.0 size=N/A time=00:00:25.79 bitrate=N/A speed=1.02x    frame=  620 fps= 25 q=-1.0 size=N/A time=00:00:25.79 bitrate=N/A speed=1.02x    frame=  774 fps= 31 q=-1.0 size=N/A time=00:00:25.79 bitrate=N/A speed=1.02x    frame=  632 fps= 24 q=-1.0 size=N/A time=00:00:26.33 bitrate=N/A speed=1.02x    frame=  632 fps= 24 q=-1.0 size=N/A time=00:00:26.33 bitrate=N/A speed=1.02x    frame=  632 fps= 24 q=-1.0 size=N/A time=00:00:26.33 bitrate=N/A speed=1.02x    frame=  790 fps= 31 q=-1.0 size=N/A time=00:00:26.33 bitrate=N/A speed=1.02x    frame=  645 fps= 24 q=-1.0 size=N/A time=00:00:26.84 bitrate=N/A speed=1.02x    frame=  644 fps= 24 q=-1.0 size=N/A time=00:00:26.83 bitrate=N/A speed=1.02x    frame=  644 fps= 24 q=-1.0 size=N/A time=00:00:26.83 bitrate=N/A speed=1.02x    frame=  805 fps= 31 q=-1.0 size=N/A time=00:00:26.83 bitrate=N/A speed=1.02x    frame=  657 fps= 24 q=-1.0 size=N/A time=00:00:27.37 bitrate=N/A speed=1.02x    frame=  657 fps= 24 q=-1.0 size=N/A time=00:00:27.35 bitrate=N/A speed=1.02x    frame=  657 fps= 24 q=-1.0 size=N/A time=00:00:27.35 bitrate=N/A speed=1.02x    frame=  821 fps= 31 q=-1.0 size=N/A time=00:00:27.35 bitrate=N/A speed=1.02x    frame=  669 fps= 24 q=-1.0 size=N/A time=00:00:27.84 bitrate=N/A speed=1.02x    frame=  669 fps= 24 q=-1.0 size=N/A time=00:00:27.86 bitrate=N/A speed=1.02x    frame=  669 fps= 24 q=-1.0 size=N/A time=00:00:27.86 bitrate=N/A speed=1.02x    frame=  836 fps= 31 q=-1.0 size=N/A time=00:00:27.86 bitrate=N/A speed=1.02x    [hls @ 00000254731fa040] Opening 'hls_streams/stream1/segment_038.ts' for writing
[hls @ 00000254731fa040] Opening 'hls_streams/stream1/index.m3u8.tmp' for writing
[hls @ 0000023e40d789c0] Opening 'hls_streams/stream3/segment_038.ts' for writing
[hls @ 0000027299dab840] Opening 'hls_streams/stream2/segment_038.ts' for writing
[hls @ 0000027299dab840] Opening 'hls_streams/stream2/index.m3u8.tmp' for writing
[hls @ 0000023e40d789c0] Opening 'hls_streams/stream3/index.m3u8.tmp' for writing
[hls @ 000001ca099f3ec0] Opening 'hls_streams/stream4/segment_038.ts' for writing
[hls @ 000001ca099f3ec0] Opening 'hls_streams/stream4/index.m3u8.tmp' for writing
frame=  681 fps= 24 q=-1.0 size=N/A time=00:00:28.37 bitrate=N/A speed=1.02x    frame=  681 fps= 24 q=-1.0 size=N/A time=00:00:28.37 bitrate=N/A speed=1.02x    frame=  682 fps= 24 q=-1.0 size=N/A time=00:00:28.39 bitrate=N/A speed=1.02x    frame=  852 fps= 31 q=-1.0 size=N/A time=00:00:28.39 bitrate=N/A speed=1.02x    frame=  694 fps= 24 q=-1.0 size=N/A time=00:00:28.90 bitrate=N/A speed=1.02x    frame=  694 fps= 24 q=-1.0 size=N/A time=00:00:28.90 bitrate=N/A speed=1.02x    frame=  694 fps= 24 q=-1.0 size=N/A time=00:00:28.88 bitrate=N/A speed=1.02x    frame=  867 fps= 31 q=-1.0 size=N/A time=00:00:28.90 bitrate=N/A speed=1.02x    frame=  706 fps= 24 q=-1.0 size=N/A time=00:00:29.41 bitrate=N/A speed=1.02x    frame=  706 fps= 24 q=-1.0 size=N/A time=00:00:29.41 bitrate=N/A speed=1.02x    frame=  706 fps= 24 q=-1.0 size=N/A time=00:00:29.41 bitrate=N/A speed=1.02x    frame=  883 fps= 31 q=-1.0 size=N/A time=00:00:29.41 bitrate=N/A speed=1.02x    frame=  718 fps= 24 q=-1.0 size=N/A time=00:00:29.90 bitrate=N/A speed=1.02x    frame=  718 fps= 24 q=-1.0 size=N/A time=00:00:29.91 bitrate=N/A speed=1.02x    frame=  718 fps= 24 q=-1.0 size=N/A time=00:00:29.90 bitrate=N/A speed=1.02x    frame=  899 fps= 31 q=-1.0 size=N/A time=00:00:29.95 bitrate=N/A speed=1.02x    [hls @ 000001ca099f3ec0] Opening 'hls_streams/stream4/segment_039.ts' for writing
[hls @ 000001ca099f3ec0] Opening 'hls_streams/stream4/index.m3u8.tmp' for writing
[out#0/hls @ 000001ca099cfe80] video:63461KiB audio:8KiB subtitle:0KiB other streams:0KiB global headers:0KiB muxing overhead: unknown
frame=  912 fps= 30 q=-1.0 Lsize=N/A time=00:00:30.40 bitrate=N/A speed=1.02x    
frame=  731 fps= 24 q=-1.0 size=N/A time=00:00:30.44 bitrate=N/A speed=1.02x    frame=  731 fps= 24 q=-1.0 size=N/A time=00:00:30.44 bitrate=N/A speed=1.02x    frame=  731 fps= 24 q=-1.0 size=N/A time=00:00:30.45 bitrate=N/A speed=1.02x    [hls @ 00000254731fa040] Opening 'hls_streams/stream1/segment_039.ts' for writing
[hls @ 00000254731fa040] Opening 'hls_streams/stream1/index.m3u8.tmp' for writing
[out#0/hls @ 0000025472acfe80] video:18344KiB audio:8KiB subtitle:0KiB other streams:0KiB global headers:0KiB muxing overhead: unknown
frame=  737 fps= 24 q=-1.0 Lsize=N/A time=00:00:30.70 bitrate=N/A speed=1.02x    
[hls @ 0000027299dab840] Opening 'hls_streams/stream2/segment_039.ts' for writing
[hls @ 0000023e40d789c0] Opening 'hls_streams/stream3/segment_039.ts' for writing
[hls @ 0000023e40d789c0] Opening 'hls_streams/stream3/index.m3u8.tmp' for writing
[hls @ 0000027299dab840] Opening 'hls_streams/stream2/index.m3u8.tmp' for writing
[out#0/hls @ 0000023e40d6ba00] video:18403KiB audio:8KiB subtitle:0KiB other streams:0KiB global headers:0KiB muxing overhead: unknown
frame=  737 fps= 24 q=-1.0 Lsize=N/A time=00:00:30.70 bitrate=N/A speed=1.02x    
[out#0/hls @ 0000027299dafe80] video:18360KiB audio:8KiB subtitle:0KiB other streams:0KiB global headers:0KiB muxing overhead: unknown
frame=  737 fps= 24 q=-1.0 Lsize=N/A time=00:00:30.70 bitrate=N/A speed=1.02x    
2025/02/24 12:59:25 INF reloading configuration (file changed)
